<!DOCTYPE svg PUBLIC "-//W3C//DTD SVG 1.1//EN" "http://www.w3.org/Graphics/SVG/1.1/DTD/svg11.dtd"[]><svg version="1.1" xmlns="http://www.w3.org/2000/svg" xmlns:xlink="http://www.w3.org/1999/xlink" preserveAspectRatio="xMidYMid meet" width="70" height="70" viewBox="0 0 256 256"><defs><path id="set0" d=" M 10223 18611 C 10223 18611 6815 31194 6815 31194 C 6815 31194 6815 39713 6815 39713 C 6815 39713 51116 50067 51116 50067 C 51116 50067 54655 47446 54655 47446 C 54655 47446 58194 30407 58194 30407 C 58194 30407 10223 18611 10223 18611 Z  " /><path id="set1" d=" M 60555 31218 C 60555 31218 64781 33171 64781 33171 C 64781 33171 60506 35015 60506 35015 C 60506 35015 64428 37525 64428 37525 C 64428 37525 59942 38771 59942 38771 C 59942 38771 63485 41791 63485 41791 C 63485 41791 58871 42418 58871 42418 C 58871 42418 61970 45893 61970 45893 C 61970 45893 57314 45882 57314 45882 C 57314 45882 59911 49747 59911 49747 C 59911 49747 55300 49103 55300 49103 C 55300 49103 57346 53285 57346 53285 C 57346 53285 52866 52019 52866 52019 C 52866 52019 54322 56438 54322 56438 C 54322 56438 50057 54577 50057 54577 C 50057 54577 50899 59154 50899 59154 C 50899 59154 46926 56727 46926 56727 C 46926 56727 47138 61378 47138 61378 C 47138 61378 43531 58432 43531 58432 C 43531 58432 43108 63069 43108 63069 C 43108 63069 39938 59659 39938 59659 C 39938 59659 38885 64195 38885 64195 C 38885 64195 36208 60385 36208 60385 C 36208 60385 34549 64734 34549 64734 C 34549 64734 32416 60595 32416 60595 C 32416 60595 30179 64680 30179 64680 C 30179 64680 28630 60290 28630 60290 C 28630 60290 25856 64031 25856 64031 C 25856 64031 24917 59468 24917 59468 C 24917 59468 21664 62800 21664 62800 C 21664 62800 21358 58153 21358 58153 C 21358 58153 17681 61007 17681 61007 C 17681 61007 18007 56362 18007 56362 C 18007 56362 13973 58689 13973 58689 C 13973 58689 14931 54131 14931 54131 C 14931 54131 10619 55888 10619 55888 C 10619 55888 12189 51505 12189 51505 C 12189 51505 7677 52658 7677 52658 C 7677 52658 9828 48529 9828 48529 C 9828 48529 5202 49057 5202 49057 C 5202 49057 7896 45258 7896 45258 C 7896 45258 3240 45152 3240 45152 C 3240 45152 6427 41755 6427 41755 C 6427 41755 1829 41015 1829 41015 C 1829 41015 5447 38085 5447 38085 C 5447 38085 995 36726 995 36726 C 995 36726 4978 34316 4978 34316 C 4978 34316 752 32364 752 32364 C 752 32364 5025 30518 5025 30518 C 5025 30518 1103 28006 1103 28006 C 1103 28006 5591 26762 5591 26762 C 5591 26762 2048 23740 2048 23740 C 2048 23740 6662 23117 6662 23117 C 6662 23117 3563 19642 3563 19642 C 3563 19642 8219 19651 8219 19651 C 8219 19651 5622 15788 5622 15788 C 5622 15788 10233 16432 10233 16432 C 10233 16432 8187 12248 8187 12248 C 8187 12248 12667 13514 12667 13514 C 12667 13514 11211 9095 11211 9095 C 11211 9095 15476 10960 15476 10960 C 15476 10960 14634 6379 14634 6379 C 14634 6379 18606 8808 18606 8808 C 18606 8808 18395 4156 18395 4156 C 18395 4156 22002 7101 22002 7101 C 22002 7101 22425 2466 22425 2466 C 22425 2466 25597 5874 25597 5874 C 25597 5874 26648 1340 26648 1340 C 26648 1340 29325 5148 29325 5148 C 29325 5148 30984 799 30984 799 C 30984 799 33117 4938 33117 4938 C 33117 4938 35354 854 35354 854 C 35354 854 36903 5243 36903 5243 C 36903 5243 39677 1505 39677 1505 C 39677 1505 40614 6065 40614 6065 C 40614 6065 43869 2735 43869 2735 C 43869 2735 44175 7380 44175 7380 C 44175 7380 47854 4526 47854 4526 C 47854 4526 47526 9171 47526 9171 C 47526 9171 51558 6845 51558 6845 C 51558 6845 50602 11400 50602 11400 C 50602 11400 54914 9645 54914 9645 C 54914 9645 53344 14030 53344 14030 C 53344 14030 57856 12874 57856 12874 C 57856 12874 55705 17006 55705 17006 C 55705 17006 60331 16477 60331 16477 C 60331 16477 57637 20276 57637 20276 C 57637 20276 62293 20382 62293 20382 C 62293 20382 59106 23778 59106 23778 C 59106 23778 63702 24518 63702 24518 C 63702 24518 60086 27448 60086 27448 C 60086 27448 64538 28807 64538 28807 C 64538 28807 60555 31218 60555 31218 Z  M 53941 31026 C 53941 31026 51429 30437 51429 30437 C 51429 30437 50068 30116 50068 30116 C 50068 30116 46676 29317 46676 29317 C 46676 29317 44388 28778 44388 28778 C 44388 28778 44388 28780 44388 28780 C 44388 28780 42197 28265 42197 28265 C 42197 28265 41188 28027 41188 28027 C 41188 28027 41211 27930 41211 27930 C 41211 27930 38921 27393 38921 27393 C 38921 27393 33530 26126 33530 26126 C 33530 26126 33537 26093 33537 26093 C 33537 26093 31258 25548 31258 25548 C 31129 25517 30652 25405 29825 25208 C 29825 25208 27477 24652 27477 24652 C 27477 24652 27004 26908 27004 26908 C 27004 26908 25171 26479 25171 26479 C 25171 26479 25033 26447 25033 26447 C 25184 25854 25085 25357 25011 25101 C 24746 24224 24027 23570 23090 23352 C 23092 23352 23096 23354 23099 23354 C 23099 23354 21505 22978 21505 22978 C 21505 22978 19215 22436 19215 22436 C 19215 22436 19146 22727 19146 22727 C 19146 22727 13946 21506 13946 21506 C 13946 21506 11657 20966 11657 20966 C 11657 20966 11120 23257 11120 23257 C 11120 23257 10778 24712 10778 24712 C 10778 24712 10500 25894 10500 25894 C 10500 25894 10044 26389 10044 26389 C 10044 26389 10097 27048 10097 27048 C 10097 27048 9581 29243 9581 29243 C 9581 29243 9240 30698 9240 30698 C 9240 30698 9199 30871 9199 30871 C 9199 30871 8525 30782 8525 30782 C 8525 30782 8536 33474 8536 33474 C 8536 33474 8544 35231 8544 35231 C 8544 35231 8553 37437 8553 37437 C 8553 37437 10755 37569 10755 37569 C 10755 37569 14871 37812 14871 37812 C 15321 38225 15797 38643 16282 39064 C 16282 39064 17738 40321 17738 40321 C 17738 40321 18287 39896 18287 39896 C 18287 39896 19347 40146 19347 40146 C 19347 40146 19719 40234 19719 40234 C 19719 40234 19814 40257 19814 40257 C 19814 40257 19913 40272 19913 40272 C 20163 40308 20417 40327 20665 40327 C 21582 40327 22408 40064 23083 39570 C 23218 39853 23360 40145 23514 40450 C 23514 40450 24634 42682 24634 42682 C 24634 42682 26793 41428 26793 41428 C 26857 41392 26918 41353 26982 41315 C 26982 41315 27099 41629 27099 41629 C 27099 41629 27587 41523 27587 41523 C 27587 41523 27945 43188 27945 43188 C 27945 43188 29472 42554 29472 42554 C 29472 42554 30500 42904 30500 42904 C 31038 43087 31600 43181 32171 43181 C 32320 43181 32471 43173 32626 43160 C 32626 43160 32701 43152 32701 43152 C 32701 43152 32774 43141 32774 43141 C 33071 43095 33353 43018 33616 42911 C 33616 42911 35372 44939 35372 44939 C 35372 44939 37147 42871 37147 42871 C 37190 42822 37232 42775 37275 42726 C 37275 42726 37118 44306 37118 44306 C 37118 44306 39119 44782 39119 44782 C 39119 44782 40270 45056 40270 45056 C 40270 45056 40306 45063 40306 45063 C 40306 45063 40339 45072 40339 45072 C 40700 45144 41052 45182 41388 45182 C 42176 45182 42893 44984 43503 44610 C 43503 44610 43165 46044 43165 46044 C 43165 46044 45458 46579 45458 46579 C 45458 46579 47067 46956 47067 46956 C 47067 46956 49349 47493 49349 47493 C 49349 47493 49807 45557 49807 45557 C 49807 45557 50819 45794 50819 45794 C 50819 45794 53107 46333 53107 46333 C 53107 46333 53645 44043 53645 44043 C 53645 44043 53973 42642 53973 42642 C 53973 42642 54511 40354 54511 40354 C 54511 40354 53852 40199 53852 40199 C 53852 40199 54056 39332 54056 39332 C 54056 39332 54387 39409 54387 39409 C 54387 39409 54923 37122 54923 37122 C 54923 37122 55692 33852 55692 33852 C 55692 33852 56232 31561 56232 31561 C 56232 31561 53941 31026 53941 31026 Z  M 51050 36213 C 51050 36213 51050 36212 51050 36212 C 51050 36212 49161 35770 49161 35770 C 49161 35770 49622 33811 49622 33811 C 49622 33811 49622 33811 49622 33811 C 49622 33811 49930 32500 49930 32500 C 49930 32500 51817 32943 51817 32943 C 51817 32943 51817 32942 51817 32942 C 51817 32942 53404 33314 53404 33314 C 53404 33314 52637 36584 52637 36584 C 52637 36584 51050 36213 51050 36213 Z  M 50994 34258 C 50994 34258 50839 34915 50839 34915 C 50839 34915 51326 35033 51326 35033 C 51326 35033 51327 35032 51327 35032 C 51327 35032 51677 35115 51677 35115 C 51677 35115 51830 34453 51830 34453 C 51830 34453 50994 34258 50994 34258 Z  M 41261 38513 C 41261 38513 41263 38513 41265 38513 C 41278 38515 41291 38519 41304 38523 C 41304 38523 41261 38513 41261 38513 Z  M 43849 31068 C 43849 31068 45530 31464 45530 31464 C 45530 31464 44496 35860 44496 35860 C 44496 35860 42979 35503 42979 35503 C 42979 35503 42979 35503 42979 35503 C 42979 35503 42814 35464 42814 35464 C 42814 35464 42814 35464 42814 35464 C 42814 35464 42465 35382 42465 35382 C 42465 35382 42113 36445 42113 36445 C 42113 36445 42559 36550 42559 36550 C 42559 36550 42559 36551 42559 36551 C 42559 36551 44435 36992 44435 36992 C 44022 39031 43466 40738 42770 42110 C 42460 42590 42001 42831 41388 42831 C 41300 42831 41208 42826 41113 42815 C 41089 42813 41064 42807 41039 42804 C 40966 42794 40891 42784 40813 42768 C 40813 42768 39662 42495 39662 42495 C 39694 42170 39710 41844 39712 41520 C 39714 41197 39699 40874 39669 40553 C 39669 40553 40769 40811 40769 40811 C 40838 40826 40907 40832 40972 40832 C 41092 40832 41199 40807 41294 40762 C 41294 40762 41293 40764 41293 40764 C 41301 40761 41308 40756 41315 40752 C 41318 40751 41322 40749 41325 40748 C 41331 40745 41336 40741 41341 40737 C 41360 40726 41380 40715 41398 40702 C 41403 40698 41408 40694 41413 40690 C 41482 40637 41545 40570 41599 40485 C 41618 40450 41637 40411 41655 40375 C 41691 40305 41721 40232 41754 40160 C 41795 40072 41838 39984 41876 39895 C 41910 39814 41940 39731 41972 39649 C 42011 39550 42051 39451 42086 39350 C 42114 39269 42138 39185 42163 39103 C 42195 39000 42230 38898 42258 38793 C 42309 38606 42354 38416 42393 38223 C 42393 38223 41567 38026 41567 38026 C 41567 38026 41403 38353 41403 38353 C 41403 38353 39770 37968 39770 37968 C 39770 37968 40929 34434 40929 34434 C 40929 34434 41250 33459 41250 33459 C 41250 33459 41435 33503 41435 33503 C 41435 33503 43324 33947 43324 33947 C 43324 33947 43626 32655 43626 32655 C 43626 32655 41291 32106 41291 32106 C 41291 32106 41527 31110 41527 31110 C 41527 31110 41659 30552 41659 30552 C 41659 30552 43849 31068 43849 31068 C 43849 31068 43849 31068 43849 31068 Z  M 36117 33326 C 36117 33326 36024 33737 36024 33737 C 36024 33737 37788 34153 37788 34153 C 37788 34153 37851 34169 37851 34169 C 37851 34169 37605 35210 37605 35210 C 37605 35210 35777 34782 35777 34782 C 35777 34782 35680 35194 35680 35194 C 35680 35194 37002 35503 37002 35503 C 37002 35503 38026 35743 38026 35743 C 38026 35743 37699 36740 37699 36740 C 37699 36740 36210 36392 36210 36392 C 36276 36547 36427 36735 36664 36959 C 36862 37141 37113 37347 37424 37578 C 37424 37578 37414 37607 37414 37607 C 37414 37607 37019 37516 37019 37516 C 37019 37516 37114 38517 37114 38517 C 37114 38517 37004 38853 37004 38853 C 36585 38543 36123 38245 35622 37964 C 35436 38267 35105 38427 34641 38444 C 34509 38226 34378 38054 34247 37925 C 34235 37914 34223 37903 34211 37892 C 34189 37872 34167 37853 34145 37835 C 34129 37822 34113 37810 34097 37798 C 34077 37784 34058 37772 34038 37760 C 34022 37750 34007 37740 33991 37732 C 33957 37714 33923 37698 33888 37686 C 33888 37686 33704 38482 33704 38482 C 33739 38492 33776 38496 33812 38496 C 33846 38496 33879 38491 33912 38483 C 33923 38480 33934 38476 33945 38473 C 33957 38469 33970 38467 33982 38462 C 33984 38461 33985 38459 33986 38457 C 34076 38420 34163 38358 34249 38263 C 34684 38630 35109 38999 35525 39371 C 35824 39639 36119 39909 36408 40178 C 36072 40536 35723 40921 35365 41340 C 34818 40709 34219 40128 33569 39597 C 33569 39597 33351 40038 33351 40038 C 33198 40487 32886 40746 32416 40819 C 32332 40826 32251 40830 32171 40830 C 31854 40830 31549 40778 31256 40679 C 31273 40492 31279 40321 31279 40168 C 31278 40091 31275 40019 31271 39951 C 31271 39951 31271 39951 31271 39951 C 31271 39944 31270 39939 31269 39933 C 31258 39780 31236 39650 31204 39543 C 31201 39535 31199 39527 31197 39520 C 31180 39470 31161 39425 31140 39386 C 31137 39380 31133 39374 31130 39368 C 31107 39330 31083 39295 31055 39268 C 30621 39498 30193 39703 29773 39884 C 29732 39902 29690 39921 29649 39938 C 29636 39877 29622 39819 29609 39761 C 29609 39761 29610 39763 29610 39763 C 29608 39754 29605 39746 29603 39736 C 29578 39631 29551 39530 29523 39433 C 29514 39400 29505 39368 29495 39337 C 29467 39244 29438 39155 29408 39070 C 29399 39045 29390 39021 29381 38996 C 29348 38908 29314 38825 29279 38746 C 29273 38733 29267 38721 29261 38708 C 29222 38623 29182 38543 29140 38469 C 28987 38712 28800 38860 28587 38905 C 28367 38320 28087 37800 27749 37346 C 27668 37468 27584 37585 27498 37699 C 26967 38408 26340 38973 25614 39394 C 25339 38846 25080 38303 24839 37762 C 25469 37431 26028 36913 26517 36209 C 26517 36209 26517 36210 26517 36210 C 26522 36202 26527 36194 26532 36187 C 26543 36172 26553 36158 26564 36143 C 26564 36143 26564 36143 26564 36143 C 26564 36143 26564 36143 26564 36142 C 26576 36124 26588 36105 26600 36086 C 26618 36060 26635 36032 26653 36005 C 26660 35995 26667 35984 26673 35974 C 26688 35951 26703 35928 26717 35905 C 26740 35869 26761 35832 26783 35796 C 26791 35782 26799 35769 26807 35755 C 26810 35749 26814 35744 26817 35738 C 26834 35710 26850 35682 26866 35654 C 26890 35613 26913 35570 26936 35528 C 26940 35521 26944 35514 26948 35506 C 26952 35499 26956 35493 26959 35486 C 26977 35454 26993 35422 27010 35390 C 27034 35346 27057 35301 27079 35255 C 27086 35243 27092 35231 27098 35218 C 27116 35183 27133 35147 27151 35111 C 27172 35067 27193 35023 27214 34978 C 27220 34965 27226 34952 27232 34939 C 27251 34898 27269 34856 27288 34814 C 27307 34771 27326 34729 27345 34686 C 27350 34673 27355 34661 27361 34648 C 27382 34598 27403 34546 27424 34495 C 27425 34492 27426 34490 27427 34488 C 27442 34451 27457 34414 27473 34376 C 27476 34367 27479 34359 27483 34350 C 27522 34251 27560 34150 27598 34046 C 27740 33584 27875 33120 28008 32655 C 28030 32579 28053 32504 28074 32428 C 28085 32391 28094 32355 28104 32318 C 28113 32288 28121 32256 28129 32225 C 28240 31829 28347 31432 28451 31033 C 28470 30963 28489 30893 28508 30823 C 28512 30804 28517 30786 28522 30768 C 28619 30388 28714 30008 28806 29627 C 28806 29627 28802 29627 28802 29627 C 28837 29481 28874 29337 28908 29192 C 28942 29049 28972 28905 29004 28762 C 29091 28381 29178 28001 29259 27618 C 29259 27618 29257 27617 29257 27617 C 29265 27577 29275 27536 29283 27496 C 29358 27513 29429 27530 29496 27546 C 30191 27710 30596 27806 30711 27834 C 30550 28523 30382 29232 30212 29956 C 30212 29956 30211 29956 30211 29956 C 30185 30069 30159 30180 30133 30292 C 30177 30288 30223 30281 30271 30271 C 30277 30270 30284 30269 30290 30267 C 30290 30267 30290 30267 30290 30267 C 30310 30263 30332 30257 30353 30252 C 30378 30246 30403 30240 30429 30233 C 30440 30230 30450 30227 30461 30224 C 30470 30221 30479 30218 30488 30215 C 30495 30213 30503 30210 30510 30208 C 30539 30199 30567 30190 30597 30180 C 30614 30173 30632 30167 30650 30160 C 30658 30157 30667 30154 30675 30151 C 30720 30134 30765 30117 30812 30098 C 30812 30098 30809 30097 30809 30097 C 30828 30089 30845 30083 30864 30074 C 30872 30086 30886 30102 30901 30119 C 30901 30119 30900 30118 30900 30118 C 30902 30120 30904 30123 30906 30125 C 30909 30128 30914 30133 30917 30136 C 30934 30155 30955 30175 30978 30198 C 30983 30202 30989 30207 30994 30212 C 31018 30235 31046 30260 31077 30287 C 31086 30295 31094 30303 31104 30311 C 31144 30346 31187 30382 31236 30422 C 31236 30422 31682 28522 31682 28522 C 31682 28522 31775 28127 31775 28127 C 31775 28127 32990 28411 32990 28411 C 32990 28411 38385 29681 38385 29681 C 38385 29681 37454 33639 37454 33639 C 37454 33639 36117 33326 36117 33326 Z  M 30973 37583 C 30891 37463 30838 37348 30808 37223 C 30751 36961 30646 36830 30506 36830 C 30487 36830 30469 36832 30452 36835 C 30263 36858 30024 36908 29735 36984 C 29570 36634 29350 36249 29078 35830 C 29078 35830 29078 35830 29078 35830 C 29065 35807 29050 35785 29035 35763 C 29058 35763 29082 35761 29104 35759 C 29104 35759 29105 35758 29105 35758 C 29638 35730 30179 35642 30723 35493 C 30764 35327 30795 35220 30829 35168 C 30829 35168 29319 34815 29319 34815 C 29319 34815 29567 33755 29567 33755 C 29567 33755 29802 33811 29802 33811 C 29802 33811 29803 33811 29803 33811 C 29803 33811 30359 33941 30359 33941 C 30359 33941 30891 34065 30891 34065 C 30891 34065 31641 34244 31641 34244 C 31641 34244 31736 33830 31736 33830 C 31736 33830 30075 33441 30075 33441 C 30075 33441 30321 32397 30321 32397 C 30321 32397 32026 32796 32026 32796 C 32026 32796 32121 32385 32121 32385 C 32121 32385 30844 32086 30844 32086 C 30844 32086 30857 32028 30857 32028 C 30857 32028 30911 31794 30911 31794 C 30699 31877 30502 31964 30315 32053 C 30316 32053 30316 32053 30316 32053 C 30313 32054 30311 32056 30308 32057 C 30225 32097 30146 32138 30068 32180 C 30038 32196 30007 32211 29978 32227 C 29880 32281 29786 32337 29696 32395 C 29696 32395 29597 32442 29597 32442 C 29341 33534 29087 34623 28830 35713 C 28888 35830 28945 35938 29000 36046 C 29000 36046 29000 36045 29000 36045 C 29522 37057 29826 37573 29909 37592 C 29815 37791 29634 38008 29364 38245 C 30213 38096 31083 37852 31973 37512 C 32044 37587 32091 37813 32117 38198 C 32117 38198 32589 36602 32589 36602 C 32589 36602 32589 36602 32589 36602 C 32589 36602 32591 36594 32591 36594 C 32591 36594 32759 36028 32759 36028 C 32759 36028 33032 36091 33032 36091 C 33032 36091 33032 36091 33032 36091 C 33032 36091 33425 36185 33425 36185 C 33426 36185 33426 36185 33426 36185 C 33426 36185 34006 36321 34006 36321 C 34006 36321 34105 36343 34105 36343 C 34133 36217 34167 36090 34194 35960 C 34194 35960 32765 35625 32765 35625 C 32496 35948 32199 36172 31869 36298 C 31997 36522 32115 36728 32214 36915 C 31990 37173 31576 37395 30973 37583 Z  M 32809 31009 C 32809 31009 32731 31338 32731 31338 C 32731 31338 33739 31575 33739 31575 C 33739 31575 33761 31581 33761 31581 C 33767 31527 33773 31472 33782 31418 C 33799 31361 33819 31307 33840 31251 C 33840 31251 32809 31009 32809 31009 Z  M 33101 29759 C 33101 29759 33032 30046 33032 30046 C 33032 30046 34043 30283 34043 30283 C 34043 30283 34060 30286 34060 30286 C 34066 30240 34071 30195 34079 30149 C 34094 30100 34111 30049 34129 30000 C 34129 30000 33101 29759 33101 29759 Z  M 34082 32985 C 33959 33064 33829 33133 33692 33188 C 33692 33188 34342 33341 34342 33341 C 34245 33230 34157 33111 34082 32985 Z  M 35049 31716 C 35031 31770 35016 31822 34995 31871 C 34995 31871 35018 31877 35018 31877 C 35018 31877 36027 32114 36027 32114 C 36027 32114 36104 31785 36104 31785 C 36104 31785 35072 31543 35072 31543 C 35066 31599 35059 31659 35049 31716 Z  M 35371 30292 C 35365 30346 35357 30399 35348 30452 C 35335 30495 35320 30539 35303 30581 C 35303 30581 35320 30585 35320 30585 C 35320 30585 36332 30822 36332 30822 C 36332 30822 36399 30534 36399 30534 C 36399 30534 35371 30292 35371 30292 Z  M 27858 32120 C 27796 32340 27731 32557 27663 32772 C 27634 32866 27604 32961 27574 33054 C 27480 33341 27384 33625 27282 33901 C 27087 33825 26888 33752 26688 33679 C 26607 33650 26525 33621 26443 33592 C 26380 33569 26319 33547 26256 33525 C 26256 33525 26250 33525 26250 33525 C 26122 33481 25996 33435 25866 33392 C 26310 32252 26642 31019 26868 29700 C 26868 29700 26918 29480 26918 29480 C 27852 29700 28352 29816 28414 29832 C 28274 30531 28113 31206 27933 31860 C 27909 31947 27883 32033 27858 32120 Z  M 23676 32542 C 23676 32542 22780 34845 22780 34845 C 22780 34845 23054 34936 23054 34936 C 22884 35471 22724 35925 22572 36297 C 22572 36297 21793 36706 21793 36706 C 21793 36706 22057 37298 22057 37298 C 21740 37751 21277 37976 20665 37976 C 20535 37976 20400 37966 20258 37946 C 20258 37946 19885 37857 19885 37857 C 19836 37372 19726 36747 19558 35984 C 19661 35998 19758 36004 19851 36004 C 20529 36004 20996 35685 21259 35050 C 21584 34180 21873 33250 22123 32261 C 22289 31601 22437 30919 22569 30210 C 22569 30210 21567 29975 21567 29975 C 20690 32794 19990 34610 19459 35424 C 18918 36235 18371 36854 17817 37284 C 17343 36875 16876 36460 16415 36040 C 16415 36040 17072 35644 17072 35644 C 17072 35644 17156 35593 17156 35593 C 17156 35593 10894 35222 10894 35222 C 10894 35222 10886 33465 10886 33465 C 10886 33465 12596 33691 12596 33691 C 12596 33691 13559 33819 13559 33819 C 13559 33819 13841 32621 13841 32621 C 13841 32621 13841 32621 13841 32621 C 13841 32621 14028 31825 14028 31825 C 14028 31825 11526 31236 11526 31236 C 11526 31236 11870 29782 11870 29782 C 11870 29782 18463 31332 18463 31332 C 18463 31332 18121 32788 18121 32788 C 18121 32788 15691 32217 15691 32217 C 15691 32217 15278 33963 15278 33963 C 15278 33963 15304 33964 15304 33964 C 15304 33964 15448 33977 15448 33977 C 15448 33977 16723 34094 16723 34094 C 16723 34094 17692 34182 17692 34182 C 17692 34182 17264 35446 17264 35446 C 17816 34857 18336 34036 18822 32993 C 18822 32993 18825 32993 18825 32993 C 18842 32957 18858 32919 18875 32883 C 18888 32855 18900 32827 18913 32799 C 18989 32630 19065 32456 19139 32276 C 19146 32260 19152 32243 19159 32227 C 19237 32036 19314 31841 19390 31638 C 19614 31025 19797 30342 19945 29593 C 19945 29593 18737 29310 18737 29310 C 18737 29310 18810 29000 18810 29000 C 18810 29000 19164 27483 19164 27483 C 19164 27483 20374 27765 20374 27765 C 20374 27765 20964 25265 20964 25265 C 20964 25265 22069 25527 22069 25527 C 22069 25527 22069 25527 22069 25527 C 22069 25527 22558 25642 22558 25642 C 22698 25674 22767 25735 22763 25823 C 22762 25903 22702 26003 22586 26126 C 22586 26126 22104 28174 22104 28174 C 22104 28174 24393 28710 24393 28710 C 24393 28710 24635 28767 24635 28767 C 24370 29956 24118 31024 23879 31972 C 23813 32164 23748 32357 23676 32542 Z  M 18272 26473 C 18272 26473 19282 27118 19282 27118 C 19282 27118 17847 28534 17847 28534 C 18050 29181 18244 29883 18423 30642 C 18423 30642 16943 30642 16943 30642 C 16943 30642 16344 28079 16344 28079 C 16462 27978 16575 27870 16687 27760 C 16687 27760 16686 27765 16686 27765 C 16698 27753 16710 27740 16722 27728 C 16753 27697 16783 27664 16814 27632 C 16904 27539 16992 27444 17078 27345 C 17111 27307 17144 27268 17176 27229 C 17261 27128 17343 27024 17423 26917 C 17449 26881 17477 26846 17503 26810 C 17607 26666 17708 26518 17804 26365 C 17804 26365 16376 26028 16376 26028 C 16376 26028 16510 26104 16510 26104 C 16510 26104 17436 26640 17436 26640 C 17436 26640 16798 27286 16798 27286 C 16798 27286 16797 27287 16797 27287 C 16797 27287 15857 28240 15857 28240 C 15857 28240 16348 30284 16348 30284 C 15898 30317 15418 30335 14909 30335 C 14883 30335 14855 30335 14828 30332 C 14828 30332 14433 27970 14433 27970 C 14433 27970 14431 27969 14431 27969 C 14431 27969 14405 27811 14405 27811 C 14843 27328 15196 26917 15463 26580 C 15674 26314 15833 26095 15937 25925 C 15937 25925 14233 25524 14233 25524 C 14233 25524 15105 26020 15105 26020 C 15105 26020 15448 26215 15448 26215 C 14890 26655 14362 27160 13860 27727 C 13860 27727 13885 27842 13885 27842 C 13885 27842 13884 27842 13884 27842 C 13884 27842 14287 29669 14287 29669 C 14287 29669 12674 29753 12674 29753 C 12674 29753 12493 27515 12493 27515 C 12493 27515 12492 27515 12492 27515 C 12492 27515 12469 27226 12469 27226 C 12868 26792 13242 26361 13585 25925 C 13708 25768 13830 25611 13946 25455 C 13946 25455 13066 25250 13066 25250 C 13066 25250 13408 23793 13408 23793 C 13408 23793 16340 24484 16340 24484 C 16340 24484 17723 24809 17723 24809 C 17723 24809 18483 24986 18483 24986 C 18483 24986 19713 25274 19713 25274 C 19713 25274 19374 26731 19374 26731 C 19374 26731 18272 26473 18272 26473 Z  M 46872 35231 C 46872 35231 45366 34878 45366 34878 C 45366 34878 46137 31605 46137 31605 C 46137 31605 49531 32405 49531 32405 C 49531 32405 49222 33716 49222 33716 C 49222 33716 49221 33715 49221 33715 C 49221 33715 48761 35675 48761 35675 C 48761 35675 46872 35231 46872 35231 C 46872 35231 46872 35231 46872 35231 Z  M 47328 34092 C 47328 34092 47328 34091 47328 34091 C 47328 34091 47776 34195 47776 34195 C 47776 34195 47929 33536 47929 33536 C 47929 33536 47306 33389 47306 33389 C 47306 33389 47305 33389 47305 33389 C 47305 33389 47119 33345 47119 33345 C 47119 33345 46964 34006 46964 34006 C 46964 34006 47328 34092 47328 34092 Z  M 43828 40255 C 43828 40255 44532 40421 44532 40421 C 44532 40421 46779 40950 46779 40950 C 46779 40950 46880 40524 46880 40524 C 46880 40524 44354 39929 44354 39929 C 44354 39929 44994 37204 44994 37204 C 44994 37204 44995 37204 44995 37204 C 44995 37204 45454 35245 45454 35245 C 45454 35245 52228 36839 52228 36839 C 52228 36839 51126 41523 51126 41523 C 51126 41523 48487 40903 48487 40903 C 48487 40903 48388 41329 48388 41329 C 48388 41329 50636 41858 50636 41858 C 50636 41858 51686 42105 51686 42105 C 51686 42105 51356 43506 51356 43506 C 51356 43506 48058 42730 48058 42730 C 48058 42730 47600 44668 47600 44668 C 47600 44668 45993 44291 45993 44291 C 45993 44291 46451 42353 46451 42353 C 46451 42353 43498 41658 43498 41658 C 43498 41658 43828 40255 43828 40255 Z  M 50077 39692 C 50077 39692 50111 39559 50111 39559 C 50111 39559 49870 39502 49870 39502 C 49943 39561 50012 39626 50077 39692 Z  M 50426 38211 C 50426 38211 50501 37895 50501 37895 C 50501 37895 49264 37603 49264 37603 C 49264 37603 49189 37921 49189 37921 C 49189 37921 50426 38211 50426 38211 Z  M 46122 38693 C 46122 38692 46123 38692 46123 38692 C 46123 38692 46053 38995 46053 38995 C 46053 38995 46369 39070 46369 39070 C 46404 38933 46438 38796 46471 38658 C 46471 38658 46148 38582 46148 38582 C 46148 38582 46122 38693 46122 38693 Z  M 47656 37227 C 47656 37227 46531 36963 46531 36963 C 46531 36963 46456 37279 46456 37279 C 46456 37279 47582 37542 47582 37542 C 47582 37542 47656 37227 47656 37227 Z  " /></defs><g transform="scale(0.00390625) scale(1.0,1.0)"><use xlink:href="#set0" fill-rule="evenodd" fill="#FFD700" /><use xlink:href="#set1" fill-rule="evenodd" fill="#AF0000" /></g></svg>