<svg viewBox="0 0 24 24" fill="none" xmlns="http://www.w3.org/2000/svg">
<mask id="mask0_2249_215" style="mask-type:alpha" maskUnits="userSpaceOnUse" x="0" y="0" width="24" height="24">
<circle cx="12" cy="12" r="12" fill="#C4C4C4"/>
</mask>
<g mask="url(#mask0_2249_215)">
<path d="M12.418 24.363C19.2458 24.1326 24.594 18.4108 24.3635 11.583C24.1331 4.75521 18.4113 -0.592994 11.5835 -0.362557C4.75571 -0.132119 -0.59249 5.58969 -0.362053 12.4175C-0.131615 19.2452 5.5902 24.5934 12.418 24.363Z" fill="url(#paint0_linear_2249_215)"/>
<path d="M24.0454 13.9546C25.1249 7.30212 20.6071 1.03411 13.9546 -0.045387C7.3021 -1.12488 1.03409 3.39293 -0.0454027 10.0454C-1.1249 16.6979 3.39291 22.9659 10.0454 24.0454C16.6979 25.1249 22.9659 20.6071 24.0454 13.9546Z" fill="url(#paint1_linear_2249_215)"/>
<path d="M15.6014 22.6825C15.2638 22.9258 14.8802 23.0976 14.4739 23.1875C14.0676 23.2773 13.6472 23.2833 13.2385 23.205C12.3723 23.0225 11.4782 23.0163 10.6095 23.1869C10.1999 23.2598 9.77962 23.2482 9.3746 23.1528C8.96958 23.0574 8.58832 22.8803 8.25422 22.6322C7.55307 22.0924 6.75043 21.6992 5.89412 21.476C5.49335 21.3639 5.11972 21.1711 4.79611 20.9095C4.47251 20.6478 4.20577 20.3228 4.01224 19.9544C3.6148 19.1635 3.06202 18.4608 2.38695 17.8883C2.07463 17.6133 1.82174 17.2775 1.64378 16.9013C1.46581 16.5252 1.36651 16.1166 1.35196 15.7008C1.3373 14.8158 1.14429 13.9428 0.784477 13.1341C0.622369 12.7509 0.540213 12.3386 0.543039 11.9225C0.545865 11.5065 0.633615 11.0954 0.800914 10.7144C1.17159 9.91064 1.3764 9.0404 1.4031 8.1557C1.42319 7.74002 1.52799 7.33283 1.71107 6.95911C1.89414 6.58538 2.15164 6.25299 2.46776 5.98232C3.15064 5.4191 3.71291 4.72393 4.1209 3.93838C4.31936 3.57264 4.59042 3.25129 4.91747 2.99403C5.24452 2.73677 5.62068 2.54901 6.02286 2.44228C6.88243 2.2308 7.69059 1.84837 8.39917 1.31781C8.73669 1.07452 9.12033 0.902696 9.52658 0.81285C9.93283 0.723004 10.3531 0.71703 10.7618 0.795298C11.6279 0.977742 12.5219 0.983798 13.3903 0.813104C13.8 0.740321 14.2203 0.751959 14.6253 0.847302C15.0304 0.942645 15.4117 1.11968 15.7459 1.36758C16.4471 1.9077 17.2499 2.30115 18.1064 2.52446C18.5072 2.63658 18.8808 2.82938 19.2044 3.09104C19.528 3.3527 19.7948 3.6777 19.9883 4.04612C20.3858 4.83695 20.9385 5.53956 21.6136 6.11198C21.9259 6.38701 22.1787 6.72288 22.3567 7.09901C22.5347 7.47514 22.6341 7.88364 22.6488 8.29951C22.6637 9.18457 22.8567 10.0576 23.2163 10.8664C23.3783 11.2497 23.4604 11.6619 23.4575 12.078C23.4547 12.494 23.3669 12.9051 23.1996 13.2861C22.829 14.0898 22.6242 14.96 22.5975 15.8446C22.5772 16.2602 22.4723 16.6674 22.2892 17.0411C22.1061 17.4148 21.8486 17.7472 21.5326 18.018C20.8499 18.5814 20.2878 19.2765 19.8796 20.0619C19.6812 20.4277 19.4101 20.7491 19.083 21.0063C18.7559 21.2636 18.3797 21.4513 17.9775 21.558C17.1179 21.7694 16.3098 22.1518 15.6014 22.6825Z" fill="url(#paint2_linear_2249_215)"/>
<path d="M15.56 22.5638C15.2262 22.8044 14.8468 22.9744 14.445 23.0632C14.0433 23.1521 13.6276 23.1579 13.2234 23.0804C12.3669 22.9001 11.4828 22.8941 10.6239 23.0628C10.2189 23.1347 9.80355 23.1232 9.40319 23.029C9.00283 22.9348 8.62591 22.7599 8.29551 22.5149C7.60223 21.9808 6.80839 21.5919 5.96142 21.3715C5.56517 21.2606 5.19574 21.0699 4.87576 20.8111C4.55578 20.5524 4.29199 20.231 4.10055 19.8668C3.70754 19.0847 3.16099 18.3897 2.49352 17.8235C2.18465 17.5516 1.93456 17.2196 1.75855 16.8477C1.58254 16.4758 1.48434 16.0718 1.46995 15.6606C1.45533 14.7853 1.2645 13.9219 0.908855 13.122C0.748486 12.7431 0.667204 12.3353 0.669991 11.9238C0.672778 11.5124 0.759575 11.1058 0.925062 10.729C1.29148 9.93421 1.49396 9.07369 1.5204 8.19887C1.54024 7.78782 1.64386 7.38515 1.8249 7.01558C2.00593 6.64601 2.26057 6.31733 2.57319 6.04969C3.24857 5.4928 3.80456 4.80528 4.20784 4.02834C4.40414 3.66671 4.67223 3.34898 4.99567 3.09463C5.31911 2.84027 5.69108 2.65465 6.0888 2.54914C6.93878 2.34 7.73794 1.96185 8.43863 1.43723C8.77239 1.19661 9.15176 1.02666 9.5535 0.937799C9.95524 0.848934 10.3709 0.843021 10.775 0.920422C11.6315 1.10089 12.5155 1.10679 13.3743 0.937772C13.7793 0.865829 14.1947 0.87731 14.595 0.971513C14.9954 1.06572 15.3723 1.24066 15.7027 1.48562C16.3961 2.01981 17.19 2.40883 18.037 2.62949C18.4333 2.74042 18.8027 2.93108 19.1228 3.18979C19.4428 3.44849 19.7066 3.7698 19.8981 4.13403C20.2911 4.91616 20.8376 5.61109 21.5051 6.1773C21.814 6.44921 22.0641 6.7813 22.2402 7.15325C22.4162 7.52519 22.5145 7.92915 22.5289 8.3404C22.5437 9.21561 22.7346 10.0789 23.09 10.8788C23.2503 11.2578 23.3315 11.6656 23.3287 12.0771C23.3259 12.4886 23.2391 12.8952 23.0736 13.272C22.7071 14.0668 22.5046 14.9273 22.478 15.8021C22.4581 16.2131 22.3544 16.6157 22.1734 16.9853C21.9924 17.3548 21.7378 17.6834 21.4252 17.9511C20.7503 18.5083 20.1944 19.1956 19.7908 19.9722C19.5945 20.3339 19.3264 20.6518 19.0029 20.9062C18.6795 21.1606 18.3074 21.3463 17.9096 21.4519C17.0597 21.661 16.2606 22.0391 15.56 22.5638Z" fill="url(#paint3_radial_2249_215)"/>
<path d="M15.3736 22.0096C15.0574 22.2378 14.6978 22.3989 14.3171 22.4831C13.9363 22.5673 13.5423 22.5728 13.1594 22.4992C12.3477 22.3283 11.51 22.3225 10.6961 22.4823C10.3122 22.5506 9.9185 22.5397 9.539 22.4504C9.15951 22.361 8.80226 22.1951 8.48916 21.9628C7.83224 21.4568 7.08011 21.0884 6.27767 20.8794C5.9022 20.7742 5.55216 20.5935 5.24895 20.3484C4.94574 20.1032 4.69574 19.7987 4.51426 19.4536C4.14196 18.7124 3.62404 18.0539 2.99146 17.5174C2.69879 17.2598 2.4618 16.9451 2.29502 16.5927C2.12824 16.2402 2.03518 15.8574 2.02154 15.4678C2.00779 14.6385 1.82705 13.8205 1.49012 13.0627C1.33814 12.7036 1.26111 12.3172 1.26374 11.9273C1.26637 11.5374 1.34861 11.1521 1.50541 10.795C1.85251 10.0421 2.04435 9.22692 2.06947 8.39819C2.08828 8.00865 2.18648 7.62706 2.35806 7.27684C2.52964 6.92662 2.77097 6.61515 3.06725 6.36155C3.70711 5.83393 4.23389 5.18261 4.61607 4.44658C4.8021 4.1039 5.05613 3.80282 5.36261 3.56177C5.66909 3.32072 6.02156 3.14479 6.39842 3.04476C7.20382 2.84656 7.96106 2.48821 8.62499 1.99106C8.94129 1.76301 9.30083 1.60195 9.68158 1.51776C10.0623 1.43356 10.4563 1.428 10.8392 1.50141C11.6507 1.67245 12.4884 1.67804 13.302 1.51785C13.686 1.44967 14.0798 1.46062 14.4593 1.55004C14.8388 1.63946 15.1961 1.80545 15.5092 2.03785C16.1663 2.54396 16.9185 2.91249 17.7212 3.12146C18.0967 3.22657 18.4467 3.40725 18.75 3.65241C19.0532 3.89758 19.3032 4.20208 19.4846 4.54725C19.8569 5.28832 20.3749 5.94675 21.0074 6.48322C21.3 6.74093 21.537 7.05565 21.7037 7.40813C21.8705 7.7606 21.9636 8.1434 21.9773 8.5331C21.9914 9.36233 22.1722 10.1803 22.5089 10.9382C22.6609 11.2973 22.7379 11.6836 22.7352 12.0735C22.7325 12.4634 22.6503 12.8486 22.4934 13.2056C22.1464 13.9586 21.9545 14.7737 21.9291 15.6025C21.9103 15.9919 21.8121 16.3733 21.6406 16.7234C21.469 17.0735 21.2278 17.3849 20.9316 17.6384C20.292 18.1666 19.7652 18.818 19.3828 19.5541C19.1968 19.8968 18.9428 20.1979 18.6363 20.439C18.3298 20.6801 17.9773 20.856 17.6004 20.9559C16.7949 21.1539 16.0375 21.5123 15.3736 22.0096Z" fill="url(#paint4_radial_2249_215)"/>
<path fill-rule="evenodd" clip-rule="evenodd" d="M16.8393 9.26955C17.0842 9.58761 17.0448 10.0606 16.7512 10.3259L11.7724 14.8259C11.4956 15.076 11.088 15.0543 10.8352 14.7759L8.19869 11.8714C7.9306 11.5761 7.93427 11.1012 8.20689 10.8108C8.4795 10.5203 8.91783 10.5243 9.18592 10.8196L11.3752 13.2314L15.8642 9.17413C16.1578 8.90877 16.5943 8.9515 16.8393 9.26955Z" fill="url(#paint5_linear_2249_215)"/>
</g>
<defs>
<linearGradient id="paint0_linear_2249_215" x1="24.3567" y1="11.3803" x2="-0.368893" y2="12.2148" gradientUnits="userSpaceOnUse">
<stop stop-color="#01E1ED"/>
<stop offset="1" stop-color="#0063A6"/>
</linearGradient>
<linearGradient id="paint1_linear_2249_215" x1="13.7571" y1="-0.0774291" x2="9.84794" y2="24.0134" gradientUnits="userSpaceOnUse">
<stop stop-color="#01E1ED"/>
<stop offset="1" stop-color="#0063A6"/>
</linearGradient>
<linearGradient id="paint2_linear_2249_215" x1="23.4576" y1="11.8156" x2="0.542968" y2="11.8156" gradientUnits="userSpaceOnUse">
<stop stop-color="#01E1ED"/>
<stop offset="1" stop-color="#0063A6"/>
</linearGradient>
<radialGradient id="paint3_radial_2249_215" cx="0" cy="0" r="1" gradientUnits="userSpaceOnUse" gradientTransform="translate(-0.0792461 -3.45354) scale(28.3989 28.3917)">
<stop offset="0.14" stop-color="#1B1B1B"/>
<stop offset="1"/>
</radialGradient>
<radialGradient id="paint4_radial_2249_215" cx="0" cy="0" r="1" gradientUnits="userSpaceOnUse" gradientTransform="translate(4.69913 2.69512) scale(27.3763 26.903)">
<stop offset="0.14" stop-color="#1B1B1B"/>
<stop offset="1"/>
</radialGradient>
<linearGradient id="paint5_linear_2249_215" x1="17" y1="11.9508" x2="8" y2="11.9508" gradientUnits="userSpaceOnUse">
<stop stop-color="#01E1ED"/>
<stop offset="1" stop-color="#0063A6"/>
</linearGradient>
</defs>
</svg>
