<svg  viewBox="0 0 16 20" fill="none" xmlns="http://www.w3.org/2000/svg">
<path d="M15.5204 14.1524L14.0078 12.1301C13.9812 12.0942 13.9669 12.0505 13.9669 12.0056V6.29592C13.9846 4.69874 13.3975 3.15569 12.3269 1.98566C11.2564 0.815623 9.78421 0.108026 8.21463 0.00909624C7.3957 -0.0337311 6.57677 0.093187 5.80768 0.382122C5.0386 0.671057 4.33547 1.11596 3.7411 1.68975C3.14673 2.26353 2.67356 2.95419 2.3504 3.71966C2.02725 4.48513 1.86087 5.3094 1.8614 6.14228V12.2173C1.8614 12.2622 1.84705 12.306 1.82052 12.3419L0.479551 14.1524C0.239635 14.4199 0.0813799 14.7525 0.0240073 15.1097C-0.0333654 15.4669 0.012614 15.8333 0.15636 16.1644C0.300106 16.4956 0.535433 16.7772 0.833756 16.9751C1.13208 17.173 1.48056 17.2786 1.83687 17.2792H14.1508C14.5082 17.281 14.8583 17.1771 15.1585 16.9802C15.4587 16.7832 15.6959 16.5018 15.8412 16.1701C15.9864 15.8385 16.0334 15.4711 15.9765 15.1128C15.9195 14.7544 15.7611 14.4207 15.5204 14.1524ZM14.7028 15.6473C14.6565 15.759 14.5785 15.8542 14.4788 15.9208C14.379 15.9873 14.262 16.0222 14.1427 16.021H1.83687C1.71946 16.0188 1.60515 15.9824 1.50751 15.9161C1.40988 15.8498 1.33303 15.7565 1.2861 15.6472C1.23916 15.5378 1.22412 15.4171 1.24276 15.2994C1.2614 15.1816 1.31294 15.0717 1.39124 14.9829L1.43621 14.9289L2.81397 13.0852C2.99401 12.8329 3.08998 12.5289 3.08789 12.2173V6.14228C3.08789 5.4985 3.213 4.86106 3.45605 4.2665C3.6991 3.67194 4.05531 3.13196 4.50425 2.67751C4.95319 2.22307 5.48604 1.8631 6.07223 1.61825C6.65843 1.37341 7.28644 1.2485 7.92027 1.25068H8.15739C9.41242 1.33465 10.5878 1.90499 11.4407 2.8439C12.2935 3.78281 12.7588 5.01857 12.7404 6.29592V12.0263C12.7404 12.344 12.8423 12.653 13.0307 12.9066L14.5597 14.9496L14.6006 14.9953C14.6828 15.0836 14.7372 15.1947 14.7569 15.3146C14.7765 15.4344 14.7605 15.5575 14.7109 15.668L14.7028 15.6473Z" fill="#FDFDFD"/>
<path d="M10.4129 18.8886C10.106 19.238 9.73 19.5175 9.30937 19.7089C8.88875 19.9003 8.43305 19.9993 7.97214 19.9993C7.51123 19.9993 7.05552 19.9003 6.6349 19.7089C6.21427 19.5175 5.83823 19.238 5.53142 18.8886C5.43328 18.7644 5.38573 18.6067 5.39853 18.448C5.41134 18.2892 5.48354 18.1415 5.60028 18.0351C5.71703 17.9288 5.86945 17.8719 6.02621 17.8762C6.18297 17.8805 6.33216 17.9456 6.44311 18.0582C6.63488 18.277 6.87009 18.4522 7.13327 18.5721C7.39645 18.692 7.68164 18.7541 7.97009 18.7541C8.25855 18.7541 8.54374 18.692 8.80692 18.5721C9.0701 18.4522 9.3053 18.277 9.49707 18.0582C9.60803 17.9456 9.75722 17.8805 9.91398 17.8762C10.0707 17.8719 10.2232 17.9288 10.3399 18.0351C10.4566 18.1415 10.5288 18.2892 10.5416 18.448C10.5545 18.6067 10.5069 18.7644 10.4088 18.8886H10.4129Z" fill="#FDFDFD"/>
</svg>
