<svg viewBox="0 0 90 90" fill="none" xmlns="http://www.w3.org/2000/svg">
<g clip-path="url(#clip0_2624_1517)">
<path fill-rule="evenodd" clip-rule="evenodd" d="M21.6742 21.6615C11.9799 31.3558 9.56943 45.5917 14.4781 57.548C15.7366 60.6134 14.2718 64.1186 11.2064 65.3771C8.14099 66.6357 4.63575 65.1709 3.37723 62.1054C-3.30503 45.8292 -0.046259 26.4115 13.1889 13.1763C26.4242 -0.058957 45.8419 -3.31772 62.1181 3.36454C65.1836 4.62306 66.6483 8.1283 65.3898 11.1937C64.1313 14.2591 60.6261 15.7239 57.5607 14.4654C45.6044 9.55674 31.3685 11.9672 21.6742 21.6615ZM24.609 78.7798C25.8676 75.7144 29.3728 74.2496 32.4382 75.5081C44.3945 80.4168 58.6304 78.0062 68.3247 68.312C78.0189 58.6177 80.4295 44.3818 75.5208 32.4255C74.2623 29.3601 75.7271 25.8549 78.7925 24.5964C81.8579 23.3378 85.3631 24.8026 86.6217 27.868C93.3039 44.1443 90.0451 63.562 76.8099 76.7972C63.5747 90.0324 44.157 93.2912 27.8807 86.609C24.8153 85.3504 23.3505 81.8452 24.609 78.7798Z" fill="url(#paint0_linear_2624_1517)"/>
</g>
<defs>
<linearGradient id="paint0_linear_2624_1517" x1="89.9891" y1="44.2492" x2="0.00976462" y2="44.2492" gradientUnits="userSpaceOnUse">
<stop stop-color="#01E0ED"/>
<stop offset="1" stop-color="#0165A7"/>
</linearGradient>
<clipPath id="clip0_2624_1517">
<rect width="90" height="90" fill="white"/>
</clipPath>
</defs>
</svg>
