<?xml version="1.0" encoding="UTF-8"?>
<svg xmlns="http://www.w3.org/2000/svg" xmlns:xlink="http://www.w3.org/1999/xlink" width="110px" height="60px" viewBox="0 0 110 60" version="1.1">
<g id="surface1">
<path style=" stroke:none;fill-rule:evenodd;fill:rgb(100%,77.254903%,0%);fill-opacity:1;" d="M 106.222656 31.851562 C 106.222656 31.851562 91.664062 52.125 91.664062 52.125 C 91.664062 52.125 84.113281 44.164062 84.113281 44.164062 C 84.113281 44.164062 77.644531 51.398438 77.644531 51.398438 C 77.644531 51.398438 67.398438 40.179688 67.398438 40.179688 C 67.398438 40.179688 63.625 44.523438 63.625 44.523438 C 63.625 44.523438 56.34375 36.917969 56.34375 36.917969 C 56.34375 36.917969 55.804688 54.660156 55.804688 54.660156 C 55.804688 54.660156 45.292969 54.296875 45.292969 54.296875 C 45.292969 54.296875 43.671875 43.433594 43.671875 43.433594 C 43.671875 43.433594 30.464844 53.210938 30.464844 53.210938 C 30.464844 53.210938 22.914062 27.148438 22.914062 27.148438 C 22.914062 27.148438 14.019531 54.296875 14.019531 54.296875 C 14.019531 54.296875 4.3125 45.96875 4.3125 45.96875 C 4.3125 45.96875 12.402344 12.304688 12.402344 12.304688 C 12.402344 12.304688 22.644531 15.925781 22.644531 15.925781 C 22.644531 15.925781 34.777344 5.429688 34.777344 5.429688 C 34.777344 5.429688 41.785156 14.839844 41.785156 14.839844 C 41.785156 14.839844 44.753906 6.152344 44.753906 6.152344 C 44.753906 6.152344 56.34375 9.050781 56.34375 9.050781 C 56.34375 9.050781 56.34375 19.183594 56.34375 19.183594 C 56.34375 19.183594 72.519531 32.214844 72.519531 32.214844 C 72.519531 32.214844 75.488281 10.132812 75.488281 10.132812 C 75.488281 10.132812 83.304688 10.496094 83.304688 10.496094 C 83.304688 10.496094 85.191406 6.152344 85.191406 6.152344 C 85.191406 6.152344 95.976562 8.324219 95.976562 8.324219 C 95.976562 8.324219 95.167969 25.335938 95.167969 25.335938 C 95.167969 25.335938 100.019531 20.273438 100.019531 20.273438 C 100.019531 20.273438 106.222656 31.851562 106.222656 31.851562 Z M 41.785156 17.371094 C 41.785156 17.371094 36.664062 24.253906 36.664062 24.253906 C 36.664062 24.253906 42.59375 43.074219 42.59375 43.074219 C 42.59375 43.074219 43.671875 19.546875 43.671875 19.546875 C 43.671875 19.546875 41.785156 17.371094 41.785156 17.371094 Z M 41.785156 17.371094 "/>
<path style=" stroke:none;fill-rule:evenodd;fill:rgb(74.901962%,2.745098%,2.745098%);fill-opacity:1;" d="M 99.582031 13.644531 C 99.582031 13.644531 109.914062 32.136719 109.914062 32.136719 C 109.914062 32.136719 107.699219 36.257812 107.699219 36.257812 C 106.441406 38.59375 104.6875 41.265625 102.1875 44.664062 C 100.050781 47.566406 98.234375 49.75 96.628906 51.382812 C 96.59375 51.449219 96.546875 51.527344 96.546875 51.527344 C 96.03125 52.445312 92.050781 54.992188 92.050781 54.992188 C 92.050781 54.992188 87.722656 52.867188 87.125 52.113281 C 87.125 52.113281 84.007812 48.113281 84.007812 48.113281 C 84.007812 48.113281 84.253906 48.410156 84.253906 48.410156 C 84.140625 48.277344 84.050781 48.117188 83.941406 47.976562 C 83.089844 49.480469 82.164062 50.929688 81.09375 52.269531 C 81.09375 52.269531 78.011719 56.128906 78.011719 56.128906 C 78.011719 56.128906 67.214844 45.738281 67.214844 45.738281 C 67.214844 45.738281 65.066406 49.367188 65.066406 49.367188 C 65.066406 49.367188 61.019531 44.722656 61.019531 44.722656 C 60.378906 43.984375 59.570312 43.21875 58.695312 42.445312 C 58.695312 42.5 58.886719 57.96875 58.886719 57.96875 C 58.886719 57.96875 42.316406 58.363281 42.316406 58.363281 C 42.316406 58.363281 42.253906 51.421875 42.253906 51.421875 C 42.25 50.996094 42.246094 50.585938 42.242188 50.164062 C 42.242188 50.164062 29.238281 57.882812 29.238281 57.882812 C 29.238281 57.882812 27.53125 50.476562 27.53125 50.476562 C 26.089844 44.210938 24.59375 38.78125 23.066406 34.089844 C 22.960938 34.710938 22.722656 36.070312 22.722656 36.070312 C 22.722656 36.070312 22.695312 36.214844 22.695312 36.214844 C 21.0625 43.984375 19.046875 50.101562 16.707031 54.398438 C 16.707031 54.398438 13.890625 59.566406 13.890625 59.566406 C 13.890625 59.566406 0.238281 48.152344 0.238281 48.152344 C 0.238281 48.152344 3.476562 42.15625 3.476562 42.15625 C 5.027344 39.289062 6.371094 35.289062 7.476562 30.277344 C 8.445312 25.800781 9.101562 21.113281 9.421875 16.34375 C 9.421875 16.34375 9.992188 7.828125 9.992188 7.828125 C 9.992188 7.828125 21.738281 12.75 21.832031 12.789062 C 21.992188 12.863281 22.117188 13 22.273438 13.085938 C 23.679688 12.117188 27.453125 9.523438 28.621094 8.71875 C 28.855469 8.414062 29.253906 7.894531 29.308594 7.820312 C 30.015625 6.851562 32.367188 3.617188 32.367188 3.617188 C 32.367188 3.617188 32.390625 3.660156 32.394531 3.660156 C 33.40625 2.238281 34.484375 0.722656 34.484375 0.722656 C 34.484375 0.722656 41.171875 9.898438 41.171875 9.898438 C 41.171875 9.898438 40.59375 4.582031 40.59375 4.582031 C 40.59375 4.582031 53.085938 5.171875 53.085938 5.171875 C 53.085938 5.171875 53.207031 5.183594 53.207031 5.183594 C 57.546875 5.664062 58.796875 9.976562 58.847656 12.449219 C 58.875 13.78125 58.632812 14.882812 58.339844 15.734375 C 58.34375 16.183594 58.355469 17.03125 58.359375 17.910156 C 63.472656 20.59375 67.875 23.929688 71.398438 27.914062 C 71.398438 27.914062 72.308594 28.949219 72.308594 28.949219 C 72.59375 26.671875 72.707031 23.855469 72.636719 20.527344 C 72.601562 18.792969 72.46875 17.085938 72.222656 15.308594 C 72.222656 15.308594 71.058594 6.621094 71.058594 6.621094 C 71.058594 6.621094 79.671875 7.375 81.199219 7.507812 C 80.921875 5.367188 80.652344 3.226562 80.652344 3.226562 C 80.652344 3.226562 92.726562 4.78125 92.726562 4.78125 C 92.726562 4.78125 92.832031 4.804688 92.832031 4.804688 C 98.089844 5.777344 98.472656 11.164062 98.492188 12.234375 C 98.492188 12.234375 98.480469 13.757812 98.480469 13.757812 C 98.480469 13.757812 98.039062 15.289062 97.972656 15.519531 C 97.976562 15.738281 98 16.847656 98.011719 17.351562 C 98.769531 15.5625 99.582031 13.644531 99.582031 13.644531 Z M 20.207031 19.335938 C 20.207031 19.335938 14.542969 16.964844 14.542969 16.964844 C 14.191406 22.148438 13.484375 27.265625 12.410156 32.21875 C 11.125 38.054688 9.527344 42.71875 7.640625 46.210938 C 7.640625 46.210938 12.558594 50.320312 12.558594 50.320312 C 14.507812 46.742188 16.257812 41.414062 17.746094 34.339844 C 18.710938 28.867188 19.40625 24.722656 19.804688 21.941406 C 20.179688 21.09375 20.492188 20.464844 20.78125 20.105469 C 20.773438 19.757812 20.570312 19.503906 20.207031 19.335938 Z M 28.542969 16.523438 C 28.542969 16.523438 23.425781 20.050781 23.425781 20.050781 C 26.601562 26.6875 29.605469 36.132812 32.441406 48.433594 C 32.441406 48.433594 38.121094 45.066406 38.121094 45.066406 C 37.007812 40.242188 35.632812 35.335938 34.023438 30.351562 C 32.210938 24.808594 30.386719 20.183594 28.542969 16.523438 Z M 32.367188 13.488281 C 32.367188 13.488281 30.871094 15.386719 30.871094 15.386719 C 32.347656 17.351562 33.421875 18.84375 34.101562 19.957031 C 34.101562 19.957031 35.5625 17.882812 35.5625 17.882812 C 34.015625 15.710938 32.972656 14.257812 32.367188 13.488281 Z M 34.53125 10.648438 C 34.53125 10.648438 33.035156 12.585938 33.035156 12.585938 C 34.511719 14.507812 35.585938 16 36.261719 17.117188 C 36.261719 17.117188 37.757812 15.085938 37.757812 15.085938 C 36.210938 12.90625 35.132812 11.414062 34.53125 10.648438 Z M 37.796875 24.851562 C 38.113281 25.757812 38.425781 26.652344 38.742188 27.613281 C 40.027344 31.597656 41.160156 35.511719 42.128906 39.304688 C 42.039062 31.898438 41.9375 25.46875 41.816406 19.390625 C 40.144531 21.664062 38.332031 24.125 37.796875 24.851562 Z M 55.210938 23.636719 C 55.210938 23.636719 53.296875 27.4375 53.296875 27.4375 C 53.296875 27.4375 53.1875 14.285156 53.1875 14.285156 C 53.183594 14.066406 53.246094 13.757812 53.433594 13.398438 C 53.617188 13.042969 53.714844 12.820312 53.707031 12.644531 C 53.699219 12.292969 53.371094 12.128906 52.78125 12.066406 C 52.78125 12.066406 46.570312 11.773438 46.570312 11.773438 C 46.730469 13.257812 46.871094 15.269531 46.925781 17.808594 C 47.15625 28.941406 47.292969 40.117188 47.394531 51.339844 C 47.394531 51.339844 53.660156 51.191406 53.660156 51.191406 C 53.558594 43.039062 53.484375 36.242188 53.402344 30.808594 C 58.265625 33.785156 61.917969 36.671875 64.359375 39.476562 C 64.359375 39.476562 68.082031 33.195312 68.082031 33.195312 C 64.671875 29.335938 60.394531 26.164062 55.210938 23.636719 Z M 82.554688 14.542969 C 82.554688 14.542969 77.289062 14.085938 77.289062 14.085938 C 77.554688 16.089844 77.730469 18.144531 77.777344 20.335938 C 77.875 25.152344 77.632812 29.152344 77.046875 32.289062 C 76.21875 36.574219 74.753906 39.960938 72.585938 42.410156 C 72.585938 42.410156 77.585938 47.226562 77.585938 47.226562 C 79.75 44.507812 81.285156 41.46875 82.261719 38.144531 C 83.023438 35.398438 83.441406 32.089844 83.554688 28.1875 C 83.566406 27.089844 83.523438 23.367188 83.390625 17.054688 C 83.382812 16.789062 83.441406 16.394531 83.5625 15.953125 C 83.683594 15.507812 83.742188 15.242188 83.742188 15.199219 C 83.734375 14.847656 83.339844 14.601562 82.554688 14.542969 Z M 97.300781 31.222656 C 95.691406 33.738281 94.605469 34.960938 94.082031 34.980469 C 93.496094 35.003906 93.21875 34.226562 93.1875 32.601562 C 93.1875 32.601562 92.808594 14.554688 92.808594 14.554688 C 92.804688 14.332031 92.984375 13.625 93.351562 12.429688 C 93.34375 12.03125 92.914062 11.789062 92.128906 11.640625 C 92.128906 11.640625 86.855469 10.960938 86.855469 10.960938 C 87.011719 12.179688 87.140625 13.710938 87.179688 15.597656 C 87.179688 15.597656 87.683594 39.695312 87.683594 39.695312 C 87.691406 40.089844 87.636719 40.488281 87.511719 40.882812 C 87.359375 41.285156 87.234375 41.644531 87.109375 41.996094 C 87.117188 42.394531 87.257812 42.78125 87.558594 43.117188 C 87.558594 43.117188 90.679688 47.125 90.679688 47.125 C 91.183594 47.765625 91.582031 48.101562 91.90625 48.085938 C 92.039062 48.082031 92.195312 47.8125 92.449219 47.367188 C 92.664062 46.832031 92.824219 46.5625 92.949219 46.46875 C 94.488281 45.007812 96.335938 42.789062 98.527344 39.816406 C 100.71875 36.835938 102.398438 34.320312 103.53125 32.21875 C 103.53125 32.21875 100.171875 26.203125 100.171875 26.203125 C 99.640625 27.449219 98.695312 29.109375 97.300781 31.222656 Z M 97.300781 31.222656 "/>
</g>
</svg>
